<svg xmlns="http://www.w3.org/2000/svg" xmlns:xlink="http://www.w3.org/1999/xlink" viewBox="0 0 750 500"><defs><style>.cls-1{fill:none;}.cls-2{isolation:isolate;}.cls-3{fill:url(#linear-gradient);}.cls-4{clip-path:url(#clip-path);}.cls-5{fill:url(#linear-gradient-2);}.cls-6{fill:url(#linear-gradient-3);}.cls-7{fill:url(#linear-gradient-4);}.cls-8{fill:url(#linear-gradient-5);}.cls-9{fill:url(#linear-gradient-6);}.cls-10{fill:url(#linear-gradient-7);}.cls-11{fill:url(#linear-gradient-8);}.cls-12{fill:url(#linear-gradient-9);}.cls-13{mix-blend-mode:color-dodge;}.cls-14{fill:#f50057;opacity:0.24;mix-blend-mode:overlay;}.cls-15{fill:#fff;}</style><linearGradient id="linear-gradient" x1="254.32" y1="98.85" x2="551.31" y2="470.83" gradientUnits="userSpaceOnUse"><stop offset="0" stop-color="#311445"/><stop offset="0.12" stop-color="#401347"/><stop offset="0.34" stop-color="#660f4b"/><stop offset="0.64" stop-color="#a50852"/><stop offset="1" stop-color="#f8005c"/></linearGradient><clipPath id="clip-path" transform="translate(-530.47)"><rect class="cls-1" x="530.47" width="750" height="500"/></clipPath><linearGradient id="linear-gradient-2" x1="696.82" y1="103.28" x2="888.82" y2="371.28" gradientUnits="userSpaceOnUse"><stop offset="0" stop-color="#311445"/><stop offset="0.08" stop-color="#401347"/><stop offset="0.22" stop-color="#660f4b"/><stop offset="0.42" stop-color="#a50852"/><stop offset="0.66" stop-color="#f8005c"/><stop offset="0.72" stop-color="#f8065c"/><stop offset="0.79" stop-color="#f9175d"/><stop offset="0.87" stop-color="#fb335f"/><stop offset="0.96" stop-color="#fe5962"/><stop offset="1" stop-color="#ff7063"/></linearGradient><linearGradient id="linear-gradient-3" x1="662.62" y1="64.71" x2="852.91" y2="300.32" xlink:href="#linear-gradient-2"/><linearGradient id="linear-gradient-4" x1="638.52" y1="23.94" x2="753.52" y2="196.94" xlink:href="#linear-gradient"/><linearGradient id="linear-gradient-5" x1="581.23" y1="-35.09" x2="782.47" y2="236.89" xlink:href="#linear-gradient-2"/><linearGradient id="linear-gradient-6" x1="1170.11" y1="501.41" x2="776.94" y2="127.9" xlink:href="#linear-gradient-2"/><linearGradient id="linear-gradient-7" x1="1223.43" y1="539.5" x2="924.43" y2="264.5" xlink:href="#linear-gradient-2"/><linearGradient id="linear-gradient-8" x1="1233.7" y1="581.21" x2="991.7" y2="303.21" xlink:href="#linear-gradient-2"/><linearGradient id="linear-gradient-9" x1="1260.19" y1="-53.78" x2="1077.28" y2="210.32" xlink:href="#linear-gradient-2"/></defs><g class="cls-2"><g id="BACKGROUND_2" data-name="BACKGROUND 2"><rect class="cls-3" width="750" height="500"/><g class="cls-4"><path class="cls-5" d="M996.74,0s42.66,131-91,151.93C831.29,163.58,893.79,280.75,783,297c-150,22-137.6,164.28-252.53,96V0Z" transform="translate(-530.47)"/><path class="cls-6" d="M530.47,326c88.53,33.87,171.63-6.66,223-73.64C812.61,175.33,755,116,875.4,123c92.38,5.37,94.15-85,78.11-123h-423Z" transform="translate(-530.47)"/><path class="cls-7" d="M530.47,277c25.73-38.33,43.21-31,116.53-12,78.16,20.26,116.88-82,91-130s14-89,92-50c77.16,38.58,96.51-53,68.47-85h-368Z" transform="translate(-530.47)"/><path class="cls-8" d="M531,213s159.94,37.1,162-97C695-14,830,78,841,0H530.47Z" transform="translate(-530.47)"/><path class="cls-9" d="M1044,0s-61,51,11,127,61,185-25,203-201-91.73-263,23c-41.86,77.47-157.06,119-236.53,49v98h750V0Z" transform="translate(-530.47)"/><path class="cls-10" d="M1280.47,162s-142.35-61.64-150,120c-4.89,116.17-79.5,124.09-221.22,89.09C762.23,334.78,713,500,713,500h567.47Z" transform="translate(-530.47)"/><path class="cls-11" d="M798.33,500s5.34-71.67,84.95-85C957.16,402.63,1067,484,1102,401s122.33-14.67,116-116c-4.23-67.61,62.47-69,62.47-69V500Z" transform="translate(-530.47)"/><path class="cls-12" d="M1065,0s-43,64,35,93,149.94-42,180.47,52V0Z" transform="translate(-530.47)"/><g class="cls-13"><path class="cls-14" d="M939,0s34.58,154.25-114,104c-59-20-114.6-5-112,90,3.87,141.17-182.53,110-182.53,110V0Z" transform="translate(-530.47)"/><path class="cls-14" d="M614,500s46.34-136.14,151.46-88.62C895.16,470,860.69,359.58,957.09,358c68.56-1.13,92.24,91.2,177.91,76,84.88-15.06,5-186.26,145.47-157V500Z" transform="translate(-530.47)"/><path class="cls-14" d="M1056.31,0s-55.3,97.1,34.11,121.1,190-55.5,190-55.5V0Z" transform="translate(-530.47)"/></g><path class="cls-15" d="M960.49,177.74a1.76,1.76,0,1,1-1.76-1.76A1.76,1.76,0,0,1,960.49,177.74Z" transform="translate(-530.47)"/><path class="cls-15" d="M970.63,177.74a1.77,1.77,0,1,1-1.77-1.76A1.76,1.76,0,0,1,970.63,177.74Z" transform="translate(-530.47)"/><path class="cls-15" d="M980.76,177.74A1.76,1.76,0,1,1,979,176,1.76,1.76,0,0,1,980.76,177.74Z" transform="translate(-530.47)"/><path class="cls-15" d="M990.9,177.74a1.77,1.77,0,1,1-1.76-1.76A1.76,1.76,0,0,1,990.9,177.74Z" transform="translate(-530.47)"/><path class="cls-15" d="M1001,177.74a1.76,1.76,0,1,1-1.76-1.76A1.76,1.76,0,0,1,1001,177.74Z" transform="translate(-530.47)"/><path class="cls-15" d="M1011.17,177.74a1.76,1.76,0,1,1-1.76-1.76A1.76,1.76,0,0,1,1011.17,177.74Z" transform="translate(-530.47)"/><path class="cls-15" d="M1021.3,177.74a1.76,1.76,0,1,1-1.76-1.76A1.76,1.76,0,0,1,1021.3,177.74Z" transform="translate(-530.47)"/><circle class="cls-15" cx="596.9" cy="33.96" r="1.76"/><circle class="cls-15" cx="596.9" cy="44.09" r="1.76"/><path class="cls-15" d="M1127.37,56a1.76,1.76,0,1,1,1.76-1.76A1.76,1.76,0,0,1,1127.37,56Z" transform="translate(-530.47)"/><path class="cls-15" d="M681.81,452.05a1.76,1.76,0,1,1,1.76-1.76A1.76,1.76,0,0,1,681.81,452.05Z" transform="translate(-530.47)"/><path class="cls-15" d="M681.81,462.18a1.76,1.76,0,1,1,1.76-1.76A1.76,1.76,0,0,1,681.81,462.18Z" transform="translate(-530.47)"/><path class="cls-15" d="M681.81,472.32a1.76,1.76,0,1,1,1.76-1.76A1.76,1.76,0,0,1,681.81,472.32Z" transform="translate(-530.47)"/><path class="cls-15" d="M775,294.63a1.76,1.76,0,1,1,1.76-1.76A1.76,1.76,0,0,1,775,294.63Z" transform="translate(-530.47)"/><path class="cls-15" d="M775,304.76a1.76,1.76,0,1,1,1.76-1.76A1.76,1.76,0,0,1,775,304.76Z" transform="translate(-530.47)"/><path class="cls-15" d="M775,314.9a1.76,1.76,0,1,1,1.76-1.76A1.76,1.76,0,0,1,775,314.9Z" transform="translate(-530.47)"/><circle class="cls-15" cx="576.67" cy="246.08" r="1.76"/><circle class="cls-15" cx="566.53" cy="246.08" r="1.76"/><circle class="cls-15" cx="556.39" cy="246.08" r="1.76"/><circle class="cls-15" cx="297.77" cy="104.93" r="1.76"/><circle class="cls-15" cx="287.63" cy="104.93" r="1.76"/><circle class="cls-15" cx="277.5" cy="104.93" r="1.76"/><circle class="cls-15" cx="735.46" cy="447.22" r="1.76"/><circle class="cls-15" cx="735.46" cy="457.35" r="1.76"/><circle class="cls-15" cx="735.46" cy="467.49" r="1.76"/><circle class="cls-15" cx="14.54" cy="136.34" r="1.76"/><circle class="cls-15" cx="14.54" cy="146.47" r="1.76"/><path class="cls-15" d="M545,158.37a1.76,1.76,0,1,1,1.76-1.76A1.76,1.76,0,0,1,545,158.37Z" transform="translate(-530.47)"/><circle class="cls-15" cx="733.7" cy="170.32" r="1.76"/><path class="cls-15" d="M1252.28,170.32a1.76,1.76,0,1,1,1.76,1.76A1.76,1.76,0,0,1,1252.28,170.32Z" transform="translate(-530.47)"/><path class="cls-15" d="M1242.14,170.32a1.76,1.76,0,1,1,1.76,1.76A1.76,1.76,0,0,1,1242.14,170.32Z" transform="translate(-530.47)"/><path class="cls-15" d="M565.28,359.84A1.76,1.76,0,1,1,567,361.6,1.76,1.76,0,0,1,565.28,359.84Z" transform="translate(-530.47)"/><path class="cls-15" d="M555.14,359.84a1.76,1.76,0,1,1,1.76,1.76A1.76,1.76,0,0,1,555.14,359.84Z" transform="translate(-530.47)"/><circle class="cls-15" cx="16.3" cy="359.84" r="1.76"/><circle class="cls-15" cx="329.04" cy="379.47" r="1.76"/><circle class="cls-15" cx="339.18" cy="379.47" r="1.76"/><circle class="cls-15" cx="349.31" cy="379.47" r="1.76"/><circle class="cls-15" cx="359.45" cy="379.47" r="1.76"/><circle class="cls-15" cx="369.58" cy="379.47" r="1.76"/><circle class="cls-15" cx="379.72" cy="379.47" r="1.76"/><path class="cls-15" d="M922.09,379.47a1.77,1.77,0,1,1-1.77-1.77A1.76,1.76,0,0,1,922.09,379.47Z" transform="translate(-530.47)"/><circle class="cls-15" cx="379.72" cy="367.95" r="1.76"/><path class="cls-15" d="M922.09,368a1.77,1.77,0,1,1-1.77-1.76A1.76,1.76,0,0,1,922.09,368Z" transform="translate(-530.47)"/><path class="cls-15" d="M932.22,368a1.76,1.76,0,1,1-1.76-1.76A1.76,1.76,0,0,1,932.22,368Z" transform="translate(-530.47)"/><circle class="cls-15" cx="410.12" cy="367.95" r="1.76"/><circle class="cls-15" cx="420.26" cy="367.95" r="1.76"/><circle class="cls-15" cx="430.4" cy="367.95" r="1.76"/><circle class="cls-15" cx="440.53" cy="367.95" r="1.76"/><circle class="cls-15" cx="100.66" cy="29.44" r="1.76"/><circle class="cls-15" cx="110.8" cy="29.44" r="1.76"/><circle class="cls-15" cx="120.93" cy="29.44" r="1.76"/><circle class="cls-15" cx="131.07" cy="29.44" r="1.76"/><path class="cls-15" d="M673.44,29.44a1.77,1.77,0,1,1-1.76-1.76A1.76,1.76,0,0,1,673.44,29.44Z" transform="translate(-530.47)"/><path class="cls-15" d="M683.57,29.44a1.76,1.76,0,1,1-1.76-1.76A1.76,1.76,0,0,1,683.57,29.44Z" transform="translate(-530.47)"/><path class="cls-15" d="M693.71,29.44A1.76,1.76,0,1,1,692,27.68,1.76,1.76,0,0,1,693.71,29.44Z" transform="translate(-530.47)"/><circle class="cls-15" cx="100.66" cy="40.96" r="1.76"/><circle class="cls-15" cx="110.8" cy="40.96" r="1.76"/><circle class="cls-15" cx="120.93" cy="40.96" r="1.76"/><circle class="cls-15" cx="131.07" cy="40.96" r="1.76"/><path class="cls-15" d="M673.44,41a1.77,1.77,0,1,1-1.76-1.77A1.76,1.76,0,0,1,673.44,41Z" transform="translate(-530.47)"/><path class="cls-15" d="M683.57,41a1.76,1.76,0,1,1-1.76-1.77A1.76,1.76,0,0,1,683.57,41Z" transform="translate(-530.47)"/><path class="cls-15" d="M693.71,41A1.76,1.76,0,1,1,692,39.19,1.76,1.76,0,0,1,693.71,41Z" transform="translate(-530.47)"/><circle class="cls-15" cx="100.66" cy="52.47" r="1.76"/><circle class="cls-15" cx="110.8" cy="52.47" r="1.76"/><circle class="cls-15" cx="120.93" cy="52.47" r="1.76"/><circle class="cls-15" cx="131.07" cy="52.47" r="1.76"/><path class="cls-15" d="M673.44,52.47a1.77,1.77,0,1,1-1.76-1.76A1.76,1.76,0,0,1,673.44,52.47Z" transform="translate(-530.47)"/><path class="cls-15" d="M683.57,52.47a1.76,1.76,0,1,1-1.76-1.76A1.76,1.76,0,0,1,683.57,52.47Z" transform="translate(-530.47)"/><path class="cls-15" d="M693.71,52.47A1.76,1.76,0,1,1,692,50.71,1.76,1.76,0,0,1,693.71,52.47Z" transform="translate(-530.47)"/><circle class="cls-15" cx="100.66" cy="63.98" r="1.76"/><circle class="cls-15" cx="110.8" cy="63.98" r="1.76"/><circle class="cls-15" cx="120.93" cy="63.98" r="1.76"/><circle class="cls-15" cx="131.07" cy="63.98" r="1.76"/><path class="cls-15" d="M673.44,64a1.77,1.77,0,1,1-1.76-1.76A1.76,1.76,0,0,1,673.44,64Z" transform="translate(-530.47)"/><path class="cls-15" d="M683.57,64a1.76,1.76,0,1,1-1.76-1.76A1.76,1.76,0,0,1,683.57,64Z" transform="translate(-530.47)"/><path class="cls-15" d="M693.71,64A1.76,1.76,0,1,1,692,62.22,1.76,1.76,0,0,1,693.71,64Z" transform="translate(-530.47)"/><circle class="cls-15" cx="100.66" cy="75.5" r="1.76"/><circle class="cls-15" cx="110.8" cy="75.5" r="1.76"/><circle class="cls-15" cx="120.93" cy="75.5" r="1.76"/><circle class="cls-15" cx="131.07" cy="75.5" r="1.76"/><path class="cls-15" d="M673.44,75.5a1.77,1.77,0,1,1-1.76-1.77A1.76,1.76,0,0,1,673.44,75.5Z" transform="translate(-530.47)"/><path class="cls-15" d="M683.57,75.5a1.76,1.76,0,1,1-1.76-1.77A1.76,1.76,0,0,1,683.57,75.5Z" transform="translate(-530.47)"/><path class="cls-15" d="M693.71,75.5A1.76,1.76,0,1,1,692,73.73,1.76,1.76,0,0,1,693.71,75.5Z" transform="translate(-530.47)"/><circle class="cls-15" cx="100.66" cy="87.01" r="1.76"/><circle class="cls-15" cx="110.8" cy="87.01" r="1.76"/><circle class="cls-15" cx="120.93" cy="87.01" r="1.76"/><circle class="cls-15" cx="131.07" cy="87.01" r="1.76"/><path class="cls-15" d="M673.44,87a1.77,1.77,0,1,1-1.76-1.76A1.76,1.76,0,0,1,673.44,87Z" transform="translate(-530.47)"/><path class="cls-15" d="M683.57,87a1.76,1.76,0,1,1-1.76-1.76A1.76,1.76,0,0,1,683.57,87Z" transform="translate(-530.47)"/><path class="cls-15" d="M693.71,87A1.76,1.76,0,1,1,692,85.25,1.76,1.76,0,0,1,693.71,87Z" transform="translate(-530.47)"/><circle class="cls-15" cx="100.66" cy="98.52" r="1.76"/><circle class="cls-15" cx="110.8" cy="98.52" r="1.76"/><circle class="cls-15" cx="120.93" cy="98.52" r="1.76"/><circle class="cls-15" cx="131.07" cy="98.52" r="1.76"/><path class="cls-15" d="M673.44,98.52a1.77,1.77,0,1,1-1.76-1.76A1.76,1.76,0,0,1,673.44,98.52Z" transform="translate(-530.47)"/><path class="cls-15" d="M683.57,98.52a1.76,1.76,0,1,1-1.76-1.76A1.76,1.76,0,0,1,683.57,98.52Z" transform="translate(-530.47)"/><path class="cls-15" d="M693.71,98.52A1.76,1.76,0,1,1,692,96.76,1.76,1.76,0,0,1,693.71,98.52Z" transform="translate(-530.47)"/><circle class="cls-15" cx="588.52" cy="393.63" r="1.76"/><path class="cls-15" d="M1130.89,393.63a1.76,1.76,0,1,1-1.76-1.76A1.76,1.76,0,0,1,1130.89,393.63Z" transform="translate(-530.47)"/><path class="cls-15" d="M1141,393.63a1.77,1.77,0,1,1-1.77-1.76A1.76,1.76,0,0,1,1141,393.63Z" transform="translate(-530.47)"/><circle class="cls-15" cx="618.93" cy="393.63" r="1.76"/><circle class="cls-15" cx="629.07" cy="393.63" r="1.76"/><circle class="cls-15" cx="639.2" cy="393.63" r="1.76"/><circle class="cls-15" cx="649.34" cy="393.63" r="1.76"/><circle class="cls-15" cx="588.52" cy="405.14" r="1.76"/><path class="cls-15" d="M1130.89,405.14a1.76,1.76,0,1,1-1.76-1.76A1.76,1.76,0,0,1,1130.89,405.14Z" transform="translate(-530.47)"/><path class="cls-15" d="M1141,405.14a1.77,1.77,0,1,1-1.77-1.76A1.77,1.77,0,0,1,1141,405.14Z" transform="translate(-530.47)"/><circle class="cls-15" cx="618.93" cy="405.14" r="1.76"/><circle class="cls-15" cx="629.07" cy="405.14" r="1.76"/><circle class="cls-15" cx="639.2" cy="405.14" r="1.76"/><circle class="cls-15" cx="649.34" cy="405.14" r="1.76"/><circle class="cls-15" cx="588.52" cy="416.66" r="1.76"/><path class="cls-15" d="M1130.89,416.66a1.76,1.76,0,1,1-1.76-1.76A1.76,1.76,0,0,1,1130.89,416.66Z" transform="translate(-530.47)"/><path class="cls-15" d="M1141,416.66a1.77,1.77,0,1,1-1.77-1.76A1.76,1.76,0,0,1,1141,416.66Z" transform="translate(-530.47)"/><circle class="cls-15" cx="618.93" cy="416.66" r="1.76"/><circle class="cls-15" cx="629.07" cy="416.66" r="1.76"/><circle class="cls-15" cx="639.2" cy="416.66" r="1.76"/><circle class="cls-15" cx="649.34" cy="416.66" r="1.76"/><circle class="cls-15" cx="588.52" cy="428.17" r="1.76"/><path class="cls-15" d="M1130.89,428.17a1.76,1.76,0,1,1-1.76-1.76A1.76,1.76,0,0,1,1130.89,428.17Z" transform="translate(-530.47)"/><path class="cls-15" d="M1141,428.17a1.77,1.77,0,1,1-1.77-1.76A1.76,1.76,0,0,1,1141,428.17Z" transform="translate(-530.47)"/><circle class="cls-15" cx="618.93" cy="428.17" r="1.76"/><circle class="cls-15" cx="629.07" cy="428.17" r="1.76"/><circle class="cls-15" cx="639.2" cy="428.17" r="1.76"/><circle class="cls-15" cx="649.34" cy="428.17" r="1.76"/><circle class="cls-15" cx="588.52" cy="439.68" r="1.76"/><path class="cls-15" d="M1130.89,439.68a1.76,1.76,0,1,1-1.76-1.76A1.76,1.76,0,0,1,1130.89,439.68Z" transform="translate(-530.47)"/><path class="cls-15" d="M1141,439.68a1.77,1.77,0,1,1-1.77-1.76A1.77,1.77,0,0,1,1141,439.68Z" transform="translate(-530.47)"/><circle class="cls-15" cx="618.93" cy="439.68" r="1.76"/><circle class="cls-15" cx="629.07" cy="439.68" r="1.76"/><circle class="cls-15" cx="639.2" cy="439.68" r="1.76"/><circle class="cls-15" cx="649.34" cy="439.68" r="1.76"/><path class="cls-15" d="M1120.75,451.2a1.76,1.76,0,1,1-1.76-1.76A1.76,1.76,0,0,1,1120.75,451.2Z" transform="translate(-530.47)"/><path class="cls-15" d="M1130.89,451.2a1.76,1.76,0,1,1-1.76-1.76A1.76,1.76,0,0,1,1130.89,451.2Z" transform="translate(-530.47)"/><path class="cls-15" d="M1141,451.2a1.77,1.77,0,1,1-1.77-1.76A1.76,1.76,0,0,1,1141,451.2Z" transform="translate(-530.47)"/><path class="cls-15" d="M1151.16,451.2a1.76,1.76,0,1,1-1.76-1.76A1.76,1.76,0,0,1,1151.16,451.2Z" transform="translate(-530.47)"/><path class="cls-15" d="M1161.3,451.2a1.77,1.77,0,1,1-1.76-1.76A1.76,1.76,0,0,1,1161.3,451.2Z" transform="translate(-530.47)"/><path class="cls-15" d="M1171.43,451.2a1.76,1.76,0,1,1-1.76-1.76A1.76,1.76,0,0,1,1171.43,451.2Z" transform="translate(-530.47)"/><path class="cls-15" d="M1181.57,451.2a1.77,1.77,0,1,1-1.76-1.76A1.76,1.76,0,0,1,1181.57,451.2Z" transform="translate(-530.47)"/><circle class="cls-15" cx="588.52" cy="462.71" r="1.76"/><path class="cls-15" d="M1130.89,462.71a1.76,1.76,0,1,1-1.76-1.76A1.76,1.76,0,0,1,1130.89,462.71Z" transform="translate(-530.47)"/><path class="cls-15" d="M1141,462.71a1.77,1.77,0,1,1-1.77-1.76A1.76,1.76,0,0,1,1141,462.71Z" transform="translate(-530.47)"/><circle class="cls-15" cx="618.93" cy="462.71" r="1.76"/><circle class="cls-15" cx="629.07" cy="462.71" r="1.76"/><circle class="cls-15" cx="639.2" cy="462.71" r="1.76"/><circle class="cls-15" cx="649.34" cy="462.71" r="1.76"/></g></g></g></svg>